<svg xmlns="http://www.w3.org/2000/svg" version="1.1" xmlns:xlink="http://www.w3.org/1999/xlink" xmlns:svgjs="http://svgjs.dev/svgjs" width="1440" height="560" preserveAspectRatio="none" viewBox="0 0 1440 560"><g mask="url(&quot;#SvgjsMask14484&quot;)" fill="none"><rect width="1440" height="560" x="0" y="0" fill="url(&quot;#SvgjsLinearGradient14485&quot;)"></rect><path d="M866 36L865 242" stroke-width="8" stroke="url(&quot;#SvgjsLinearGradient14486&quot;)" stroke-linecap="round" class="Up"></path><path d="M1327 338L1326 110" stroke-width="10" stroke="url(&quot;#SvgjsLinearGradient14487&quot;)" stroke-linecap="round" class="Down"></path><path d="M1278 257L1277 86" stroke-width="6" stroke="url(&quot;#SvgjsLinearGradient14486&quot;)" stroke-linecap="round" class="Up"></path><path d="M232 409L231 716" stroke-width="6" stroke="url(&quot;#SvgjsLinearGradient14488&quot;)" stroke-linecap="round" class="Up"></path><path d="M111 15L110 377" stroke-width="10" stroke="url(&quot;#SvgjsLinearGradient14488&quot;)" stroke-linecap="round" class="Up"></path><path d="M1291 401L1290 160" stroke-width="6" stroke="url(&quot;#SvgjsLinearGradient14489&quot;)" stroke-linecap="round" class="Down"></path><path d="M466 99L465 -91" stroke-width="10" stroke="url(&quot;#SvgjsLinearGradient14487&quot;)" stroke-linecap="round" class="Down"></path><path d="M728 170L727 -170" stroke-width="6" stroke="url(&quot;#SvgjsLinearGradient14488&quot;)" stroke-linecap="round" class="Up"></path><path d="M829 446L828 129" stroke-width="6" stroke="url(&quot;#SvgjsLinearGradient14486&quot;)" stroke-linecap="round" class="Up"></path><path d="M1416 279L1415 435" stroke-width="10" stroke="url(&quot;#SvgjsLinearGradient14489&quot;)" stroke-linecap="round" class="Down"></path><path d="M53 46L52 263" stroke-width="8" stroke="url(&quot;#SvgjsLinearGradient14489&quot;)" stroke-linecap="round" class="Down"></path><path d="M4 307L3 -103" stroke-width="10" stroke="url(&quot;#SvgjsLinearGradient14486&quot;)" stroke-linecap="round" class="Up"></path><path d="M118 190L117 -45" stroke-width="6" stroke="url(&quot;#SvgjsLinearGradient14487&quot;)" stroke-linecap="round" class="Down"></path><path d="M948 372L947 678" stroke-width="6" stroke="url(&quot;#SvgjsLinearGradient14489&quot;)" stroke-linecap="round" class="Down"></path><path d="M366 485L365 288" stroke-width="8" stroke="url(&quot;#SvgjsLinearGradient14489&quot;)" stroke-linecap="round" class="Down"></path><path d="M1434 212L1433 -157" stroke-width="8" stroke="url(&quot;#SvgjsLinearGradient14489&quot;)" stroke-linecap="round" class="Down"></path><path d="M227 527L226 928" stroke-width="10" stroke="url(&quot;#SvgjsLinearGradient14487&quot;)" stroke-linecap="round" class="Down"></path><path d="M600 337L599 -33" stroke-width="10" stroke="url(&quot;#SvgjsLinearGradient14486&quot;)" stroke-linecap="round" class="Up"></path><path d="M370 49L369 206" stroke-width="6" stroke="url(&quot;#SvgjsLinearGradient14487&quot;)" stroke-linecap="round" class="Down"></path><path d="M420 202L419 -137" stroke-width="6" stroke="url(&quot;#SvgjsLinearGradient14488&quot;)" stroke-linecap="round" class="Up"></path><path d="M812 276L811 105" stroke-width="10" stroke="url(&quot;#SvgjsLinearGradient14489&quot;)" stroke-linecap="round" class="Down"></path><path d="M927 27L926 -280" stroke-width="10" stroke="url(&quot;#SvgjsLinearGradient14489&quot;)" stroke-linecap="round" class="Down"></path><path d="M940 87L939 -222" stroke-width="8" stroke="url(&quot;#SvgjsLinearGradient14489&quot;)" stroke-linecap="round" class="Down"></path><path d="M1020 202L1019 558" stroke-width="8" stroke="url(&quot;#SvgjsLinearGradient14489&quot;)" stroke-linecap="round" class="Down"></path><path d="M131 32L130 231" stroke-width="10" stroke="url(&quot;#SvgjsLinearGradient14487&quot;)" stroke-linecap="round" class="Down"></path><path d="M905 48L904 -109" stroke-width="8" stroke="url(&quot;#SvgjsLinearGradient14486&quot;)" stroke-linecap="round" class="Up"></path><path d="M786 189L785 6" stroke-width="6" stroke="url(&quot;#SvgjsLinearGradient14487&quot;)" stroke-linecap="round" class="Down"></path><path d="M727 29L726 -370" stroke-width="8" stroke="url(&quot;#SvgjsLinearGradient14489&quot;)" stroke-linecap="round" class="Down"></path><path d="M761 60L760 409" stroke-width="8" stroke="url(&quot;#SvgjsLinearGradient14486&quot;)" stroke-linecap="round" class="Up"></path><path d="M337 161L336 -258" stroke-width="10" stroke="url(&quot;#SvgjsLinearGradient14488&quot;)" stroke-linecap="round" class="Up"></path><path d="M1429 40L1428 -349" stroke-width="6" stroke="url(&quot;#SvgjsLinearGradient14488&quot;)" stroke-linecap="round" class="Up"></path><path d="M484 428L483 707" stroke-width="10" stroke="url(&quot;#SvgjsLinearGradient14488&quot;)" stroke-linecap="round" class="Up"></path><path d="M1029 419L1028 244" stroke-width="6" stroke="url(&quot;#SvgjsLinearGradient14489&quot;)" stroke-linecap="round" class="Down"></path><path d="M1417 319L1416 560" stroke-width="10" stroke="url(&quot;#SvgjsLinearGradient14489&quot;)" stroke-linecap="round" class="Down"></path><path d="M1179 52L1178 -111" stroke-width="10" stroke="url(&quot;#SvgjsLinearGradient14486&quot;)" stroke-linecap="round" class="Up"></path><path d="M625 280L624 44" stroke-width="6" stroke="url(&quot;#SvgjsLinearGradient14486&quot;)" stroke-linecap="round" class="Up"></path></g><defs><mask id="SvgjsMask14484"><rect width="1440" height="560" fill="#ffffff"></rect></mask><linearGradient x1="15.28%" y1="-39.29%" x2="84.72%" y2="139.29%" gradientUnits="userSpaceOnUse" id="SvgjsLinearGradient14485"><stop stop-color="#0e2a47" offset="0"></stop><stop stop-color="rgba(22, 115, 54, 1)" offset="0.49"></stop><stop stop-color="rgba(31, 125, 63, 1)" offset="0.61"></stop><stop stop-color="rgba(0, 111, 255, 1)" offset="1"></stop></linearGradient><linearGradient x1="0%" y1="100%" x2="0%" y2="0%" id="SvgjsLinearGradient14486"><stop stop-color="rgba(28, 83, 142, 0)" offset="0"></stop><stop stop-color="#1c538e" offset="1"></stop></linearGradient><linearGradient x1="0%" y1="0%" x2="0%" y2="100%" id="SvgjsLinearGradient14487"><stop stop-color="rgba(28, 83, 142, 0)" offset="0"></stop><stop stop-color="#1c538e" offset="1"></stop></linearGradient><linearGradient x1="0%" y1="100%" x2="0%" y2="0%" id="SvgjsLinearGradient14488"><stop stop-color="rgba(37, 194, 53, 0)" offset="0"></stop><stop stop-color="rgba(37, 194, 53, 1)" offset="1"></stop></linearGradient><linearGradient x1="0%" y1="0%" x2="0%" y2="100%" id="SvgjsLinearGradient14489"><stop stop-color="rgba(37, 194, 53, 0)" offset="0"></stop><stop stop-color="rgba(37, 194, 53, 1)" offset="1"></stop></linearGradient></defs></svg>